<?xml version="1.0" encoding="UTF-8" standalone="no"?>
<!DOCTYPE svg PUBLIC "-//W3C//DTD SVG 1.1//EN" "http://www.w3.org/Graphics/SVG/1.1/DTD/svg11.dtd">
<svg xmlns="http://www.w3.org/2000/svg" xmlns:xlink="http://www.w3.org/1999/xlink" version="1.1" width="800pt" height="800pt" viewBox="0 0 800 800">
<path transform="matrix(1,0,0,-1,0,800)" d="M 20 400 C 20 190.132 190.132 20 400 20 C 609.868 20 780 190.132 780 400 C 780 609.868 609.868 780 400 780 C 190.132 780 20 609.868 20 400 Z " fill="#9c4f00"/>
<path transform="matrix(1,0,0,-1,0,800)" stroke-width="1" stroke-linecap="round" stroke-linejoin="round" fill="none" stroke="#9c4f00" d="M 20 400 C 20 190.132 190.132 20 400 20 C 609.868 20 780 190.132 780 400 C 780 609.868 609.868 780 400 780 C 190.132 780 20 609.868 20 400 Z "/>
<path transform="matrix(1,0,0,-1,0,800)" stroke-width="1" stroke-linecap="round" stroke-linejoin="round" fill="none" stroke="#ffff00" d="M 405.969 779.953 L 417.9 779.578 M 411.936 779.812 L 435.761 778.314 M 417.9 779.578 L 453.542 776.209 M 423.86 779.25 L 471.205 773.269 M 429.814 778.829 L 488.709 769.501 M 435.761 778.314 L 506.017 764.912 M 441.699 777.705 L 523.089 759.512 M 447.627 777.004 L 539.887 753.315 M 453.542 776.209 L 556.375 746.333 M 459.445 775.322 L 572.516 738.582 M 465.333 774.342 L 588.274 730.08 M 471.205 773.269 L 603.614 720.845 M 477.059 772.105 L 618.502 710.897 M 482.894 770.848 L 632.905 700.259 M 488.709 769.501 L 646.79 688.954 M 494.502 768.062 L 660.128 677.008 M 500.272 766.532 L 672.888 664.447 M 506.017 764.912 L 685.042 651.299 M 511.735 763.201 L 696.564 637.592 M 517.426 761.401 L 707.426 623.358 M 523.089 759.512 L 717.607 608.629 M 528.72 757.535 L 727.082 593.436 M 534.32 755.469 L 735.831 577.813 M 539.887 753.315 L 743.834 561.796 M 545.42 751.074 L 751.074 545.42 M 550.916 748.747 L 757.535 528.72 M 556.375 746.333 L 763.201 511.735 M 561.796 743.834 L 768.062 494.502 M 567.177 741.25 L 772.105 477.059 M 572.516 738.582 L 775.322 459.445 M 577.813 735.831 L 777.705 441.699 M 583.066 732.997 L 779.25 423.86 M 588.274 730.08 L 779.953 405.969 M 593.436 727.082 L 779.812 388.064 M 598.549 724.003 L 778.829 370.186 M 603.614 720.845 L 777.004 352.373 M 608.629 717.607 L 774.342 334.667 M 613.592 714.291 L 770.848 317.106 M 618.502 710.897 L 766.532 299.728 M 623.358 707.426 L 761.401 282.574 M 628.16 703.88 L 755.469 265.68 M 632.905 700.259 L 748.747 249.084 M 637.592 696.564 L 741.25 232.823 M 642.221 692.795 L 732.997 216.934 M 646.79 688.954 L 724.003 201.451 M 651.299 685.042 L 714.291 186.408 M 655.745 681.06 L 703.88 171.84 M 660.128 677.008 L 692.795 157.779 M 664.447 672.888 L 681.06 144.255 M 668.701 668.701 L 668.701 131.299 M 672.888 664.447 L 655.745 118.94 M 677.008 660.128 L 642.221 107.205 M 681.06 655.745 L 628.16 96.1199 M 685.042 651.299 L 613.592 85.7094 M 688.954 646.79 L 598.549 75.9967 M 692.795 642.221 L 583.066 67.0035 M 696.564 637.592 L 567.177 58.7495 M 700.259 632.905 L 550.916 51.2532 M 703.88 628.16 L 534.32 44.5312 M 707.426 623.358 L 517.426 38.5985 M 710.897 618.502 L 500.272 33.4681 M 714.291 613.592 L 482.894 29.1516 M 717.607 608.629 L 465.333 25.6584 M 720.845 603.614 L 447.627 22.9964 M 724.003 598.549 L 429.814 21.1714 M 727.082 593.436 L 411.936 20.1875 M 730.08 588.274 L 394.031 20.0469 M 732.997 583.066 L 376.14 20.7499 M 735.831 577.813 L 358.301 22.2948 M 738.583 572.516 L 340.555 24.6785 M 741.25 567.177 L 322.941 27.8953 M 743.834 561.796 L 305.498 31.9384 M 746.333 556.375 L 288.265 36.7986 M 748.747 550.916 L 271.28 42.4653 M 751.074 545.42 L 254.58 48.9258 M 753.315 539.887 L 238.204 56.1657 M 755.469 534.32 L 222.187 64.1691 M 757.535 528.72 L 206.564 72.918 M 759.512 523.089 L 191.371 82.3932 M 761.401 517.426 L 176.642 92.5735 M 763.201 511.735 L 162.408 103.436 M 764.912 506.017 L 148.701 114.958 M 766.532 500.272 L 135.553 127.112 M 768.062 494.502 L 122.992 139.872 M 769.501 488.709 L 111.046 153.21 M 770.848 482.894 L 99.7411 167.095 M 772.105 477.059 L 89.1031 181.498 M 773.269 471.205 L 79.1554 196.386 M 774.342 465.333 L 69.92 211.726 M 775.322 459.445 L 61.4175 227.484 M 776.209 453.542 L 53.6667 243.625 M 777.004 447.627 L 46.6849 260.113 M 777.705 441.699 L 40.4876 276.911 M 778.314 435.761 L 35.0884 293.983 M 778.829 429.814 L 30.4994 311.291 M 779.25 423.86 L 26.7309 328.795 M 779.578 417.9 L 23.791 346.458 M 779.812 411.936 L 21.6865 364.239 M 779.953 405.969 L 20.4218 382.1 M 780 400 L 20 400 M 779.953 394.031 L 20.4218 417.9 M 779.812 388.064 L 21.6865 435.761 M 779.578 382.1 L 23.791 453.542 M 779.25 376.14 L 26.7309 471.205 M 778.829 370.186 L 30.4994 488.709 M 778.314 364.239 L 35.0884 506.017 M 777.705 358.301 L 40.4876 523.089 M 777.004 352.373 L 46.6849 539.887 M 776.209 346.458 L 53.6667 556.375 M 775.322 340.555 L 61.4175 572.516 M 774.342 334.667 L 69.92 588.274 M 773.269 328.795 L 79.1554 603.614 M 772.105 322.941 L 89.1031 618.502 M 770.848 317.106 L 99.7411 632.905 M 769.501 311.291 L 111.046 646.79 M 768.062 305.498 L 122.992 660.128 M 766.532 299.728 L 135.553 672.888 M 764.912 293.983 L 148.701 685.042 M 763.201 288.265 L 162.408 696.564 M 761.401 282.574 L 176.642 707.426 M 759.512 276.911 L 191.371 717.607 M 757.535 271.28 L 206.564 727.082 M 755.469 265.68 L 222.187 735.831 M 753.315 260.113 L 238.204 743.834 M 751.074 254.58 L 254.58 751.074 M 748.747 249.084 L 271.28 757.535 M 746.333 243.625 L 288.265 763.201 M 743.834 238.204 L 305.498 768.062 M 741.25 232.823 L 322.941 772.105 M 738.583 227.484 L 340.555 775.322 M 735.831 222.187 L 358.301 777.705 M 732.997 216.934 L 376.14 779.25 M 730.08 211.726 L 394.031 779.953 M 727.082 206.564 L 411.936 779.812 M 724.003 201.451 L 429.814 778.829 M 720.845 196.386 L 447.627 777.004 M 717.607 191.371 L 465.333 774.342 M 714.291 186.408 L 482.894 770.848 M 710.897 181.498 L 500.272 766.532 M 707.426 176.642 L 517.426 761.401 M 703.88 171.84 L 534.32 755.469 M 700.259 167.095 L 550.916 748.747 M 696.564 162.408 L 567.177 741.25 M 692.795 157.779 L 583.066 732.997 M 688.954 153.21 L 598.549 724.003 M 685.042 148.701 L 613.592 714.291 M 681.06 144.255 L 628.16 703.88 M 677.008 139.872 L 642.221 692.795 M 672.888 135.553 L 655.745 681.06 M 668.701 131.299 L 668.701 668.701 M 664.447 127.112 L 681.06 655.745 M 660.128 122.992 L 692.795 642.221 M 655.745 118.94 L 703.88 628.16 M 651.299 114.958 L 714.291 613.592 M 646.79 111.046 L 724.003 598.549 M 642.221 107.205 L 732.997 583.066 M 637.592 103.436 L 741.25 567.177 M 632.905 99.7411 L 748.747 550.916 M 628.16 96.1199 L 755.469 534.32 M 623.358 92.5735 L 761.401 517.426 M 618.502 89.1031 L 766.532 500.272 M 613.592 85.7094 L 770.848 482.894 M 608.629 82.3932 L 774.342 465.333 M 603.614 79.1554 L 777.004 447.627 M 598.549 75.9967 L 778.829 429.814 M 593.436 72.918 L 779.812 411.936 M 588.274 69.92 L 779.953 394.031 M 583.066 67.0035 L 779.25 376.14 M 577.813 64.1691 L 777.705 358.301 M 572.516 61.4175 L 775.322 340.555 M 567.177 58.7495 L 772.105 322.941 M 561.796 56.1657 L 768.062 305.498 M 556.375 53.6667 L 763.201 288.265 M 550.916 51.2532 L 757.535 271.28 M 545.42 48.9258 L 751.074 254.58 M 539.887 46.6849 L 743.834 238.204 M 534.32 44.5312 L 735.831 222.187 M 528.72 42.4653 L 727.082 206.564 M 523.089 40.4875 L 717.607 191.371 M 517.426 38.5985 L 707.426 176.642 M 511.735 36.7986 L 696.564 162.408 M 506.017 35.0884 L 685.042 148.701 M 500.272 33.4681 L 672.888 135.553 M 494.502 31.9384 L 660.128 122.992 M 488.709 30.4994 L 646.79 111.046 M 482.894 29.1516 L 632.905 99.7411 M 477.059 27.8953 L 618.502 89.1031 M 471.205 26.7308 L 603.614 79.1554 M 465.333 25.6584 L 588.274 69.92 M 459.445 24.6785 L 572.516 61.4175 M 453.542 23.791 L 556.375 53.6667 M 447.627 22.9964 L 539.887 46.6849 M 441.699 22.2948 L 523.089 40.4875 M 435.761 21.6865 L 506.017 35.0884 M 429.814 21.1714 L 488.709 30.4994 M 423.86 20.7499 L 471.205 26.7308 M 417.9 20.4219 L 453.542 23.791 M 411.936 20.1875 L 435.761 21.6865 M 405.969 20.0469 L 417.9 20.4219 "/>
<path transform="matrix(1,0,0,-1,0,800)" stroke-width="1" stroke-linecap="round" stroke-linejoin="round" fill="none" stroke="#0000ff" d="M 20 400 C 20 190.132 190.132 20 400 20 C 609.868 20 780 190.132 780 400 C 780 609.868 609.868 780 400 780 C 190.132 780 20 609.868 20 400 Z "/>
</svg>
