<svg id="icon-txt" xmlns="http://www.w3.org/2000/svg" viewBox="0 0 50 50" width="50px" height="50px"><defs><style>.cls-1{fill:#ffcc00;}.cls-2{fill:#000;}</style></defs><circle class="cls-1" cx="25" cy="25" r="19.5" transform="translate(-10.35 25) rotate(-45)"/><path class="cls-2" d="M31.63,21.1h-.94a3.85,3.85,0,0,0-.55-1.84,1.79,1.79,0,0,0-.9-.74,4.25,4.25,0,0,0-1.12-.13H26.41v9.83a2.63,2.63,0,0,0,.12.9.88.88,0,0,0,.56.5,3.48,3.48,0,0,0,1.28.18v.91H21.63V29.8a2.42,2.42,0,0,0,1.59-.35,1.71,1.71,0,0,0,.36-1.23V18.39H22.16a6.05,6.05,0,0,0-1.4.13,1.7,1.7,0,0,0-1,.73,3.57,3.57,0,0,0-.48,1.85h-.94V17.29H31.63Z"/></svg>