<?xml version="1.0" encoding="utf-8"?>
<!-- Generator: Adobe Illustrator 15.1.0, SVG Export Plug-In . SVG Version: 6.00 Build 0)  -->
<!DOCTYPE svg PUBLIC "-//W3C//DTD SVG 1.1//EN" "http://www.w3.org/Graphics/SVG/1.1/DTD/svg11.dtd">
<svg version="1.1" id="Layer_1" xmlns="http://www.w3.org/2000/svg" xmlns:xlink="http://www.w3.org/1999/xlink" x="0px" y="0px"
	 width="50px" height="50px" viewBox="0 0 50 50" enable-background="new 0 0 50 50" xml:space="preserve">
<g>
	<defs>
		<rect id="SVGID_1_" width="50" height="50"/>
	</defs>
	<clipPath id="SVGID_2_">
		<use xlink:href="#SVGID_1_"  overflow="visible"/>
	</clipPath>
	<path clip-path="url(#SVGID_2_)" fill="#E53125" d="M5.54,24.5c0-10.747,8.712-19.46,19.461-19.46
		c10.749,0,19.46,8.713,19.46,19.46s-8.711,19.46-19.46,19.46C14.251,43.96,5.54,35.247,5.54,24.5"/>
	<path clip-path="url(#SVGID_2_)" fill="#FFFFFF" d="M33.736,21.049c0.371,0,0.664,0.086,0.879,0.255s0.324,0.355,0.324,0.562
		c0,0.189-0.133,0.355-0.396,0.495c-0.262,0.141-0.641,0.211-1.127,0.211h-1.961c-0.84,0-1.514,0.009-2.02,0.03
		c-2.52,0.095-3.867,0.144-4.039,0.144c-1.427,0-2.89,0.09-4.392,0.265c-0.51,0.059-1.152,0.157-1.933,0.292
		c-0.096,0-0.243,0.04-0.44,0.117c-0.193,0.08-0.369,0.117-0.525,0.117c-0.352,0-0.948-0.228-1.788-0.687
		c-0.838-0.459-1.257-0.824-1.257-1.098c0-0.098,0.078-0.146,0.234-0.146c0.586,0.097,1.162,0.19,1.728,0.279
		c0.565,0.087,1.092,0.131,1.581,0.131l5.795-0.087c1.659,0,2.937-0.044,3.835-0.133c0.898-0.088,1.514-0.215,1.844-0.381
		c0.332-0.165,0.68-0.292,1.041-0.38s0.697-0.131,1.008-0.131c0.273,0,0.533,0.014,0.777,0.043S33.426,21.01,33.736,21.049
		 M30.548,29.334c0,1.307-0.478,2.353-1.437,3.133c-0.953,0.781-2.213,1.172-3.775,1.172c-1.385,0-2.644-0.342-3.776-1.024
		c-1.346-0.821-2.018-1.894-2.018-3.222c0-1.698,0.76-2.916,2.281-3.66c0.508-0.234,1.268-0.428,2.284-0.584
		c0.098-0.078,0.148-0.197,0.148-0.352c0-0.098-0.031-0.233-0.088-0.41c-0.06-0.176-0.089-0.284-0.089-0.321
		c0-0.08,0.077-0.138,0.234-0.175c0.158-0.041,0.274-0.059,0.353-0.059c0.235,0,0.408,0.028,0.526,0.086
		c0.293,0.139,0.516,0.342,0.673,0.615c0.06,0.098,0.118,0.244,0.176,0.44c0.584,0.117,1.055,0.234,1.404,0.351
		c2.068,0.763,3.104,2.03,3.104,3.808V29.334z M27.766,17.479c0.273,0.058,0.489,0.125,0.645,0.2
		c0.291,0.153,0.439,0.327,0.439,0.516c0,0.327-0.24,0.547-0.719,0.661c-0.477,0.119-1.078,0.173-1.799,0.173h-1.055h-0.351
		c-0.938,0-1.483-0.026-1.639-0.084c-0.488-0.207-0.957-0.517-1.406-0.933c-0.448-0.414-0.673-0.767-0.673-1.061
		c0.059-0.117,0.109-0.175,0.148-0.175c0.466,0.156,0.92,0.293,1.36,0.41c0.438,0.118,0.815,0.175,1.128,0.175l2.195,0.118H27.766z
		 M28.818,28.924c0-1.054-0.438-1.863-1.313-2.429c-0.706-0.448-1.495-0.673-2.373-0.673c-1.094,0-1.993,0.301-2.692,0.906
		c-0.703,0.605-1.055,1.445-1.055,2.519c0,0.976,0.399,1.775,1.201,2.399c0.742,0.566,1.619,0.85,2.634,0.85
		c1.035,0,1.894-0.312,2.575-0.937c0.684-0.624,1.023-1.445,1.023-2.46V28.924z"/>
</g>
</svg>
