<?xml version="1.0" encoding="utf-8"?>
<!-- Generator: Adobe Illustrator 15.1.0, SVG Export Plug-In . SVG Version: 6.00 Build 0)  -->
<!DOCTYPE svg PUBLIC "-//W3C//DTD SVG 1.1//EN" "http://www.w3.org/Graphics/SVG/1.1/DTD/svg11.dtd">
<svg version="1.1" id="Layer_1" xmlns="http://www.w3.org/2000/svg" xmlns:xlink="http://www.w3.org/1999/xlink" x="0px" y="0px"
	 width="50px" height="50px" viewBox="0 0 50 50" enable-background="new 0 0 50 50" xml:space="preserve">
<g>
	<defs>
		<rect id="SVGID_1_" width="50" height="50"/>
	</defs>
	<clipPath id="SVGID_2_">
		<use xlink:href="#SVGID_1_"  overflow="visible"/>
	</clipPath>
	<path clip-path="url(#SVGID_2_)" fill="#287ABE" d="M5.539,25C5.539,14.252,14.251,5.539,25,5.539
		c10.75,0,19.461,8.713,19.461,19.461S35.75,44.461,25,44.461C14.251,44.461,5.539,35.748,5.539,25"/>
	<path clip-path="url(#SVGID_2_)" fill="#FFFFFF" d="M35.584,17.327l-3.625-0.001l-2.502,10.606l-2.85-10.594l-3.383-0.09
		l-3.406,10.792L17.5,17.265l-3.811,0.045l3.989,15.187l4.058-0.086l2.865-10.404l2.92,10.455l3.957-0.146l3.971-14.988
		 M35.449,17.327L35.449,17.327"/>
</g>
</svg>
