<?xml version="1.0" encoding="utf-8"?>
<!-- Generator: Adobe Illustrator 15.1.0, SVG Export Plug-In . SVG Version: 6.00 Build 0)  -->
<!DOCTYPE svg PUBLIC "-//W3C//DTD SVG 1.1//EN" "http://www.w3.org/Graphics/SVG/1.1/DTD/svg11.dtd">
<svg version="1.1" id="Layer_1" xmlns="http://www.w3.org/2000/svg" xmlns:xlink="http://www.w3.org/1999/xlink" x="0px" y="0px"
	 width="50px" height="50px" viewBox="0 0 50 50" enable-background="new 0 0 50 50" xml:space="preserve">
<g>
	<defs>
		<rect id="SVGID_1_" width="50" height="50"/>
	</defs>
	<clipPath id="SVGID_2_">
		<use xlink:href="#SVGID_1_"  overflow="visible"/>
	</clipPath>
	<path clip-path="url(#SVGID_2_)" fill="#E53125" d="M5.54,24.5C5.54,13.753,14.251,5.04,25,5.04c10.75,0,19.461,8.713,19.461,19.46
		S35.75,43.96,25,43.96C14.251,43.96,5.54,35.247,5.54,24.5"/>
	<path clip-path="url(#SVGID_2_)" fill="#FFFFFF" d="M25.238,12.841c0,0,0.365-1.639-0.844-1.639c-1.546,0-1.105,2.989-1.105,2.989
		s0.197,4.027,1.466,6.728c1.374,2.926,4.208,7.02,11.189,7.78c0,0,1.61-0.031,1.512-0.834c0,0-0.104,0.525-1.444,0.371
		c-3.578-0.527-8.377-2.618-10.352-7.645c-1.178-2.992-2.112-9.014-1.207-9.127c0.187-0.023,0.705,0.008,0.604,1.917
		C25.058,13.381,25.164,13.335,25.238,12.841"/>
	<path clip-path="url(#SVGID_2_)" fill="none" stroke="#FFFFFF" stroke-width="0.074" d="M25.238,12.841
		c0,0,0.365-1.639-0.844-1.639c-1.546,0-1.105,2.989-1.105,2.989s0.197,4.027,1.466,6.728c1.374,2.926,4.208,7.02,11.189,7.78
		c0,0,1.61-0.031,1.512-0.834c0,0-0.104,0.525-1.444,0.371c-3.578-0.527-8.377-2.618-10.352-7.645
		c-1.178-2.992-2.112-9.014-1.207-9.127c0.187-0.023,0.705,0.008,0.604,1.917C25.058,13.381,25.164,13.335,25.238,12.841z"/>
	<path clip-path="url(#SVGID_2_)" fill="#FFFFFF" d="M24.996,14.685c0,0-0.705,5.648-3.597,11.281
		c-1.376,2.985-3.542,6.997-5.633,8.513c0,0-1.483,0.877-1.483-0.062c0-0.402,1.791-2.619,4.5-4.756c0,0-5.047,3.025-5.047,4.605
		c0.049,1.258,1.305,1.391,2.432,0.535c0.557-0.418,2.957-2.531,5.771-8.678c0,0,2.578-5.248,2.967-7.747
		C25.295,15.876,24.996,14.685,24.996,14.685"/>
	<path clip-path="url(#SVGID_2_)" fill="none" stroke="#FFFFFF" stroke-width="0.074" d="M24.996,14.685
		c0,0-0.705,5.648-3.597,11.281c-1.376,2.985-3.542,6.997-5.633,8.513c0,0-1.483,0.877-1.483-0.062c0-0.402,1.791-2.619,4.5-4.756
		c0,0-5.047,3.025-5.047,4.605c0.049,1.258,1.305,1.391,2.432,0.535c0.557-0.418,2.957-2.531,5.771-8.678
		c0,0,2.578-5.248,2.967-7.747C25.295,15.876,24.996,14.685,24.996,14.685z"/>
	<path clip-path="url(#SVGID_2_)" fill="#FFFFFF" d="M37.504,27.365c0,0-0.263-1.121-2.367-1.271
		c-2.572-0.181-8.596,0.542-14.69,2.965c0,0,8.676-2.014,10.493-2.199c1.812-0.183,3.604-0.482,4.705-0.277
		c1.1,0.211,1.776,0.854,1.824,0.992C37.516,27.709,37.504,27.365,37.504,27.365"/>
	<path clip-path="url(#SVGID_2_)" fill="none" stroke="#FFFFFF" stroke-width="0.074" d="M37.504,27.365
		c0,0-0.263-1.121-2.367-1.271c-2.572-0.181-8.596,0.542-14.69,2.965c0,0,8.676-2.014,10.493-2.199
		c1.812-0.183,3.604-0.482,4.705-0.277c1.1,0.211,1.776,0.854,1.824,0.992C37.516,27.709,37.504,27.365,37.504,27.365z"/>
</g>
</svg>
