<svg id="Layer_1" data-name="Layer 1" xmlns="http://www.w3.org/2000/svg" xmlns:xlink="http://www.w3.org/1999/xlink" x="0px" y="0px"
     width="50px" height="50px" viewBox="0 0 50 50" enable-background="new 0 0 50 50" xml:space="preserve"><defs><style>.cls-1{fill:none;}.cls-2{clip-path:url(#clip-path);}.cls-3{fill:#62b4dd;}.cls-4{fill:#fff;}</style><clipPath id="clip-path"><rect id="SVGID" class="cls-1" y="0.38" width="50" height="50"/></clipPath></defs><g class="cls-2"><path class="cls-3" d="M5.47,24.88A19.5,19.5,0,1,1,25,44.38a19.46,19.46,0,0,1-19.5-19.5"/><path class="cls-4" d="M28.67,33.78c-2.4-1.7-4.9-3.3-7.3-5,4.8-3.6,9.6-7.1,14.4-10.6-2.4,5.2-4.7,10.4-7.1,15.6m-9.6-.6c.5-1.2,1.1-2.5,1.6-3.7.7.5,1.3.9,2,1.4-1.1.8-2.3,1.5-3.6,2.3m-.6-.7a.31.31,0,0,1-.1.2c0-.4-.1-.7-.1-1l-.3-4.2c0-.2,0-.2.2-.3,4.5-2.3,9-4.7,13.5-7,.1,0,.1-.1.2-.1-.7.5-1.3,1-2,1.5-3.1,2.3-6.2,4.6-9.4,6.9-.3.2-.4.6-.6.9a22.25,22.25,0,0,0-1.4,3.1m-1.2-6.2c-1.6-1.1-3.2-2.1-4.8-3.2-.1,0-.1-.1-.2-.1,7.1-1.6,14.2-3.3,21.2-4.9v.1c-.8.4-1.5.8-2.3,1.2-4.5,2.3-9,4.7-13.4,7a.9.9,0,0,1-.5-.1m19.4-9.9c-7.1,1.6-14.2,3.3-21.2,4.9-1.4.3-2.9.7-4.3,1-.3.1-.4.2-.4.4s.1.3.3.4c1.9,1.3,3.9,2.6,5.8,3.8.2.1.2.2.3.4.2,2.3.3,4.5.5,6.7a1.42,1.42,0,0,0,.2.6c.1,0,.2,0,.2.1.1-.1.3-.1.4-.2,1.6-1,3.3-2.1,4.9-3.1.1-.1.2-.1.4,0,1.6,1.1,3.1,2.1,4.7,3.2.4.3.6.2.9-.2,1.1-2.3,2.1-4.6,3.2-7,1.2-2.7,2.5-5.3,3.7-8,.4-.8.7-1.6,1.1-2.3,0-.1.1-.1.1-.2s0-.2.1-.2a.76.76,0,0,0-.9-.3"/></g></svg>