<svg id="Layer_1" data-name="Layer 1" xmlns="http://www.w3.org/2000/svg" xmlns:xlink="http://www.w3.org/1999/xlink" x="0px" y="0px"
     width="50px" height="50px" viewBox="0 0 50 50" enable-background="new 0 0 50 50" xml:space="preserve"><defs><style>.cls-1{fill:none;}.cls-2{clip-path:url(#clip-path);}.cls-3{fill:#8e181b;}.cls-4{fill:#fff;}</style><clipPath id="clip-path"><rect id="SVGID" class="cls-1" y="0.38" width="50" height="50"/></clipPath></defs><g class="cls-2"><path class="cls-3" d="M5.42,24.84a19.5,19.5,0,1,1,19.5,19.5,19.46,19.46,0,0,1-19.5-19.5"/><rect class="cls-4" x="16.32" y="16.24" width="17.4" height="1"/><path class="cls-4" d="M17.42,13.44a2.9,2.9,0,0,0-2.9,2.9v17.2a2.9,2.9,0,0,0,2.9,2.9h17V19.14H17.52a1.9,1.9,0,0,1-1.9-1.9v-.8a1.9,1.9,0,0,1,1.9-1.9h16.9v-1.1Zm0,6.7h16v15.3H17.52a1.9,1.9,0,0,1-1.9-1.9v-14a2.88,2.88,0,0,0,1.8.64"/><rect class="cls-4" x="18.12" y="23.34" width="12.9" height="2.4"/></g></svg>