<svg id="Layer_1" data-name="Layer 1" xmlns="http://www.w3.org/2000/svg" xmlns:xlink="http://www.w3.org/1999/xlink" x="0px" y="0px"
     width="50px" height="50px" viewBox="0 0 50 50" enable-background="new 0 0 50 50" xml:space="preserve"><defs><style>.cls-1{fill:#85b916;}.cls-2{fill:#fff;}</style></defs><path class="cls-1" d="M5.5,25A19.5,19.5,0,1,1,25,44.5,19.46,19.46,0,0,1,5.5,25"/><path class="cls-2" d="M25.05,32.83l-7.5-7.4L25,18l2.5,2.5-5,5L25,28l7.4-7.4L26,13.93a1.39,1.39,0,0,0-1.9,0l-10.5,10.5a1.39,1.39,0,0,0,0,1.9l10.5,10.5a1.39,1.39,0,0,0,1.9,0l10.5-10.5a1.39,1.39,0,0,0,0-1.9L35,22.93Z"/></svg>