<svg id="Layer_1" data-name="Layer 1" xmlns="http://www.w3.org/2000/svg" xmlns:xlink="http://www.w3.org/1999/xlink" x="0px" y="0px"
     width="50px" height="50px" viewBox="0 0 50 50" enable-background="new 0 0 50 50" xml:space="preserve"><defs><style>.cls-1{fill:none;}.cls-2{clip-path:url(#clip-path);}.cls-3{fill:#565555;}.cls-4{fill:#fff;}</style><clipPath id="clip-path"><rect id="SVGID" class="cls-1" y="0.38" width="50" height="50"/></clipPath></defs><g class="cls-2"><path class="cls-3" d="M5.49,24.88A19.46,19.46,0,1,1,25,44.34,19.46,19.46,0,0,1,5.49,24.88"/><path class="cls-4" d="M30.63,21.32l3.43-2.26a1.51,1.51,0,0,0,.95.34,1.46,1.46,0,0,0,.84-.26,1.49,1.49,0,0,0,.4-2.08A1.51,1.51,0,0,0,35,16.41a1.48,1.48,0,0,0-1.39,2l-6.16,4.06-1.56-2.3-5.2,3.52L22,25.68C12.85,30.2,8.61,24.52,8.43,24.27l-.81.58a10,10,0,0,0,7.86,3.55,14.09,14.09,0,0,0,4.3-.72L16.43,30a1.52,1.52,0,0,0-1-.37,1.44,1.44,0,0,0-.84.26,1.49,1.49,0,0,0-.4,2.08,1.51,1.51,0,0,0,1.24.65,1.52,1.52,0,0,0,.84-.25,1.48,1.48,0,0,0,.56-1.74l5.82-4,1.56,2.31,5.2-3.52-1.36-2c9.13-4.43,13.43,1.22,13.61,1.46l.81-.59c0-.06-4-5.25-11.85-2.95m4-4a.72.72,0,0,1,.42-.13.74.74,0,0,1,.62.33.78.78,0,0,1,.12.56.74.74,0,0,1-.32.47.7.7,0,0,1-.42.13.74.74,0,0,1-.42-1.36M15.86,31.71a.79.79,0,0,1-.42.12A.74.74,0,0,1,14.7,31a.73.73,0,0,1,.32-.48.7.7,0,0,1,.42-.13.74.74,0,0,1,.62.33.75.75,0,0,1-.2,1m8.56-3.82-2.68-4,4-2.68,2.68,4Z"/></g></svg>