<svg id="Layer_1" data-name="Layer 1" xmlns="http://www.w3.org/2000/svg" xmlns:xlink="http://www.w3.org/1999/xlink" x="0px" y="0px"
     width="50px" height="50px" viewBox="0 0 50 50" enable-background="new 0 0 50 50" xml:space="preserve"><defs><style>.cls-1{fill:#a645ff;}.cls-2{fill:none;stroke:#fff;stroke-miterlimit:10;}</style></defs><path class="cls-1" d="M5.5,25A19.5,19.5,0,1,1,25,44.5,19.46,19.46,0,0,1,5.5,25"/><g id="Layer_72" data-name="Layer 72"><path class="cls-2" d="M38.49,23.78a9.43,9.43,0,0,0-2.8-6.5,10,10,0,0,0-2.9-2,18.54,18.54,0,0,0-3.3-1.2,16.6,16.6,0,0,0-13.4,2.3,9.87,9.87,0,0,0-3.8,5.9,7.88,7.88,0,0,0,2,6.6,13.18,13.18,0,0,0,5.8,3.6,18.34,18.34,0,0,0,6.12.81,5.68,5.68,0,0,1-.62,1.89,4.81,4.81,0,0,1-1.6,1.9l-1.2.9h1.5a7.61,7.61,0,0,0,4.8-1.8,6.14,6.14,0,0,0,1.7-1.9,9.1,9.1,0,0,0,1-2.1,12.66,12.66,0,0,0,4.47-3.1,7.94,7.94,0,0,0,2.2-5.3"/></g></svg>