<?xml version="1.0" encoding="utf-8"?>
<!-- Generator: Adobe Illustrator 25.1.0, SVG Export Plug-In . SVG Version: 6.00 Build 0)  -->
<svg version="1.1" id="Logo" xmlns="http://www.w3.org/2000/svg" xmlns:xlink="http://www.w3.org/1999/xlink" x="0px" y="0px"
	 viewBox="0 0 653.4 501.1" style="enable-background:new 0 0 653.4 501.1;" xml:space="preserve">
<style type="text/css">
	.st0{fill-rule:evenodd;clip-rule:evenodd;fill:url(#SVGID_1_);}
	.st1{fill-rule:evenodd;clip-rule:evenodd;fill:url(#SVGID_2_);}
	.st2{fill-rule:evenodd;clip-rule:evenodd;fill:#FFFFFF;}
	.st3{fill-rule:evenodd;clip-rule:evenodd;fill:#FCEAB6;}
</style>
<linearGradient id="SVGID_1_" gradientUnits="userSpaceOnUse" x1="121.25" y1="22.0045" x2="121.25" y2="-268.1955" gradientTransform="matrix(1 0 0 1 0 300)">
	<stop  offset="0" style="stop-color:#155FA3"/>
	<stop  offset="0.2" style="stop-color:#155FA3"/>
	<stop  offset="0.79" style="stop-color:#43B5EA"/>
	<stop  offset="1" style="stop-color:#43B5EA"/>
</linearGradient>
<path class="st0" d="M41.1,31h160.4c22.5,0,41,18.5,41,41.1v145.4c0,18.6-12.6,34.5-29.7,39.5l26,64.2l-109.2-62.7H41.1
	C18.6,258.5,0,240,0,217.5V72.1C0,49.5,18.6,31,41.1,31z"/>
<linearGradient id="SVGID_2_" gradientUnits="userSpaceOnUse" x1="387.2759" y1="200.4342" x2="387.2759" y2="-307.1308" gradientTransform="matrix(1 0 0 1 0 300)">
	<stop  offset="0" style="stop-color:#FD4D07"/>
	<stop  offset="1" style="stop-color:#FD8F2F"/>
</linearGradient>
<path class="st1" d="M497.4,27.9L497.4,27.9c1.9,0,3.7,0,5.5,0c36.6,0,65.9-4.8,92.4-24.5c13.2-9.8,32.3,3.4,20.2,25.3
	c-8.1,14.3-19,25.8-32.1,34.7c7.4,0.9,14.6,2.8,21.6,5.8c24.6,10.4,41.8,31.4,48.4,55.5c-21.8,12.1-48.8,14.5-73.5,4.1
	c-3.3-1.4-6.3-2.9-9.3-4.7c0,91.1,0,182.2,0,273.2c0,26.6-10.7,32.3-31.9,32.3c-20.8,0-41.5,0-62.2,0c0,20,0,39.8,0,59.8
	c0,6.4-5.3,11.7-11.7,11.7c-7.7,0-15.5,0-23.4,0c-3.2,0-6.1-1.3-8.2-3.5c-2.1-2.1-3.4-5-3.4-8.2c0-4.2,0-8.4,0-12.6
	c0-14.5-13-14.5-13,0c0,4.2,0,8.4,0,12.6c0,6.4-5.3,11.7-11.7,11.7c-7.7,0-15.5,0-23.2,0c-6.4,0-11.7-5.3-11.7-11.7
	c0-49.6-88.9-50.2-88.9,0c0,6.4-5.3,11.7-11.7,11.7c-7.7,0-15.5,0-23.2,0c-3.3,0-6.2-1.3-8.3-3.5c-2.1-2.1-3.4-5-3.4-8.2
	c0-4.2,0-8.4,0-12.6c0-13.4-13-13.4-13,0c0,4.2,0,8.4,0,12.6c0,6.4-5.3,11.7-11.7,11.7c-7.7,0-15.5,0-23.2,0
	c-6.4,0-11.7-5.3-11.7-11.7c0-51,0-92.1,0-143.2c-21.6,8.8-26,22.5-26.4,40.6c19.3,17.1,18.3,49.8-6.1,73.2
	c-27.1-23.7-26.6-58.9-9.2-72.8c0.8-34.9,18.7-60.6,40.6-84.2l56.5,32.5c12.7,7.2,29-6.9,23.5-20.6l-20.3-50.1
	c8.5-5.8,15.4-13.8,19.7-23.2c1.5-3,2.7-6.1,3.4-9.1c1.4-4.8,2.1-9.8,2.1-15.1l0,0V72.1l0,0c0-15.9-6.5-30.2-16.9-40.8
	c-8.5-8.5-19.9-14.5-32.3-16.2c0.2-13.3,13.9-19.4,24.1-11.8c26.7,19.9,59.9,24.5,92.3,24.5c1.9,0,3.7,0,5.5,0l0,0
	C386.9,27.9,442.2,27.9,497.4,27.9z"/>
<path class="st2" d="M477.1,84.2l61.8,66.8v246.8h-61.8v-28.4c14.2,0,25.8-14.9,25.8-33.2c0-18.2-11.6-33.2-25.8-33.2V182
	c0.8-2.8,1.3-5.7,1.3-8.8c0-3.2-0.5-6.1-1.3-8.9L477.1,84.2L477.1,84.2z M352.4,57.8h100.3l24.4,26.4v80.2
	c-2.7-8.8-9.5-15.1-17.3-15.1c-10.3,0-18.7,10.7-18.7,23.9c0,13.1,8.4,23.9,18.7,23.9c7.8,0,14.6-6.3,17.3-15.2v121
	c-14.1,0-25.8,14.9-25.8,33.2c0,18.2,11.7,33.2,25.8,33.2v28.4H352.4v-28.4c14.1,0,25.8-14.9,25.8-33.2c0-18.2-11.7-33.2-25.8-33.2
	v-121c2.7,8.9,9.5,15.2,17.3,15.2c10.3,0,18.7-10.9,18.7-23.9c0-13.2-8.4-23.9-18.7-23.9c-7.8,0-14.6,6.3-17.3,15.1V57.8z
	 M290.6,57.8h61.8v106.6c-0.8,2.8-1.3,5.7-1.3,8.9c0,3,0.5,6,1.3,8.8v121c-14.2,0-25.8,14.9-25.8,33.2c0,18.2,11.6,33.2,25.8,33.2
	v28.4h-61.8V57.8z"/>
<path class="st3" d="M538.9,287.2v110.5h-61.8v-28.4c14.2,0,25.8-14.9,25.8-33.2c0-18.2-11.6-33.2-25.8-33.2v-27.4
	C499.2,278,520,282,538.9,287.2z M477.1,397.7H352.4v-28.4c14.1,0,25.8-14.9,25.8-33.2c0-18.2-11.7-33.2-25.8-33.2v-27.4
	c19.9-2.5,40.8-3.7,62.4-3.7s42.5,1.3,62.4,3.7v27.6c-14.1,0-25.8,14.9-25.8,33.2c0,18.2,11.7,33.2,25.8,33.2L477.1,397.7
	L477.1,397.7z M352.4,397.7h-61.8V287.2c18.9-5.3,39.7-9.2,61.8-11.8V303c-14.2,0-25.8,14.9-25.8,33.2c0,18.2,11.6,33.2,25.8,33.2
	V397.7z"/>
<path class="st3" d="M329.8,227.6h169.8v14.7H329.8V227.6L329.8,227.6z M329.8,104.1h115.7v14.7H329.8V104.1L329.8,104.1z
	 M329.8,165.9h22.1c-0.6,2.2-0.8,4.8-0.8,7.4s0.2,5,0.8,7.2h-22.1V165.9L329.8,165.9z M387.4,165.9h54.7c-0.6,2.2-0.9,4.8-0.9,7.4
	s0.4,5,0.9,7.2h-54.7c0.6-2.2,0.9-4.7,0.9-7.2S388,168.1,387.4,165.9L387.4,165.9z M477.6,165.9h22.1v14.6h-22.1
	c0.6-2.2,0.8-4.7,0.8-7.2S478.1,168.1,477.6,165.9z"/>
<path id="Py" class="st2" d="M83.6,91h2.3c20.6,0,30.2,13.8,30.2,27.6c0,13.9-9.6,27.7-30.2,27.7h-2.3v-12.5h2
	c11.1,0,15.3-7.8,15.2-15.6c-0.1-7.4-4.5-14.7-15.2-14.7h-2V91L83.6,91z M122.5,110.4h16.9l20.6,56.3l21.5-56.4H197l-45.1,108.2
	h-15.6l15.3-34.4L122.5,110.4z M54.3,91h12.1h17.1v12.5H66.5v30.3h17.1v12.5H66.5v37.7h-15V91H54.3z"/>
</svg>
